<svg width="402.686" height="402.686" xmlns="http://www.w3.org/2000/svg">
    <g>
        <title>Layer 1</title>
        <g id="svg_1">
            <path id="svg_2" d="m15,193.754l96.605,0c8.271,0 15,-6.729 15,-15l0,-30.084c0,-8.271 -6.729,-15 -15,-15l-96.605,0c-8.271,0 -15,6.729 -15,15l0,30.084c0,8.271 6.729,15 15,15z" fill="#d5c7bc"/>
            <path id="svg_3" d="m264.287,178.754l0,-30.084c0,-8.271 -6.729,-15 -15,-15l-96.605,0c-8.271,0 -15,6.729 -15,15l0,30.084c0,8.271 6.729,15 15,15l96.605,0c8.271,0 15,-6.729 15,-15z" fill="#d5c7bc"/>
            <path id="svg_4" d="m401.968,178.754l0,-30.084c0,-8.271 -6.729,-15 -15,-15l-96.605,0c-8.271,0 -15,6.729 -15,15l0,30.084c0,8.271 6.729,15 15,15l96.605,0c8.271,0 15,-6.729 15,-15z" fill="#d5c7bc"/>
            <path id="svg_5" d="m82.976,118.492l96.606,0c8.271,0 15,-6.729 15,-15l0,-30.085c0,-8.271 -6.729,-15 -15,-15l-96.606,0c-8.271,0 -15,6.729 -15,15l0,30.085c0,8.271 6.729,15 15,15z" fill="#d5c7bc"/>
            <path id="svg_6" d="m222.104,118.492l96.605,0c8.271,0 15,-6.729 15,-15l0,-30.085c0,-8.271 -6.729,-15 -15,-15l-96.605,0c-8.271,0 -15,6.729 -15,15l0,30.085c0,8.271 6.729,15 15,15z" fill="#d5c7bc"/>
            <path id="svg_7" d="m15,118.492l26.302,0c8.271,0 15,-6.729 15,-15l0,-30.085c0,-8.271 -6.729,-15 -15,-15l-26.302,0c-8.271,0 -15,6.729 -15,15l0,30.085c0,8.271 6.729,15 15,15z" fill="#d5c7bc"/>
            <path id="svg_8" d="m387.686,58.407l-26.301,0c-8.271,0 -15,6.729 -15,15.001l0,30.084c0,8.271 6.729,15 15,15l26.301,0c8.271,0 15,-6.729 15,-15l0,-30.084c0,-8.272 -6.729,-15.001 -15,-15.001z" fill="#d5c7bc"/>
            <path id="svg_9" d="m111.605,284.194l-96.605,0c-8.271,0 -15,6.729 -15,15l0,30.085c0,8.271 6.729,15 15,15l96.605,0c8.271,0 15,-6.729 15,-15l0,-30.085c0,-8.271 -6.728,-15 -15,-15z" fill="#d5c7bc"/>
            <path id="svg_10" d="m249.287,284.194l-96.605,0c-8.271,0 -15,6.729 -15,15l0,30.085c0,8.271 6.729,15 15,15l96.605,0c8.271,0 15,-6.729 15,-15l0,-30.085c0,-8.271 -6.729,-15 -15,-15z" fill="#d5c7bc"/>
            <path id="svg_11" d="m386.968,284.194l-96.605,0c-8.271,0 -15,6.729 -15,15l0,30.085c0,8.271 6.729,15 15,15l96.605,0c8.271,0 15,-6.729 15,-15l0,-30.085c0,-8.271 -6.729,-15 -15,-15z" fill="#d5c7bc"/>
            <path id="svg_12" d="m82.976,208.932c-8.271,0 -15,6.729 -15,15l0,30.085c0,8.271 6.729,15 15,15l96.606,0c8.271,0 15,-6.729 15,-15l0,-30.085c0,-8.271 -6.729,-15 -15,-15l-96.606,0z" fill="#d5c7bc"/>
            <path id="svg_13" d="m222.104,269.016l96.605,0c8.271,0 15,-6.729 15,-15l0,-30.085c0,-8.271 -6.729,-15 -15,-15l-96.605,0c-8.271,0 -15,6.729 -15,15l0,30.085c0,8.271 6.729,15 15,15z" fill="#d5c7bc"/>
            <path id="svg_14" d="m15,269.016l26.302,0c8.271,0 15,-6.729 15,-15l0,-30.085c0,-8.271 -6.729,-15 -15,-15l-26.302,0c-8.271,0 -15,6.729 -15,15l0,30.085c0,8.271 6.729,15 15,15z" fill="#d5c7bc"/>
            <path id="svg_15" d="m387.686,208.932l-26.301,0c-8.271,0 -15,6.729 -15,15l0,30.085c0,8.271 6.729,15 15,15l26.301,0c8.271,0 15,-6.729 15,-15l0,-30.085c0,-8.271 -6.729,-15 -15,-15z" fill="#d5c7bc"/>
        </g>
    </g>
</svg>
