<svg width="402.686" height="402.686" xmlns="http://www.w3.org/2000/svg">
    <g fill="#d5c7bc">
        <path d="M15 193.754h96.605c8.271 0 15-6.729 15-15V148.67c0-8.271-6.729-15-15-15H15c-8.271 0-15 6.729-15 15v30.084c0 8.271 6.729 15 15 15zM264.287 178.754V148.67c0-8.271-6.729-15-15-15h-96.605c-8.271 0-15 6.729-15 15v30.084c0 8.271 6.729 15 15 15h96.605c8.271 0 15-6.729 15-15zM401.968 178.754V148.67c0-8.271-6.729-15-15-15h-96.605c-8.271 0-15 6.729-15 15v30.084c0 8.271 6.729 15 15 15h96.605c8.271 0 15-6.729 15-15zM82.976 118.492h96.606c8.271 0 15-6.729 15-15V73.407c0-8.271-6.729-15-15-15H82.976c-8.271 0-15 6.729-15 15v30.085c0 8.271 6.729 15 15 15zM222.104 118.492h96.605c8.271 0 15-6.729 15-15V73.407c0-8.271-6.729-15-15-15h-96.605c-8.271 0-15 6.729-15 15v30.085c0 8.271 6.729 15 15 15zM15 118.492h26.302c8.271 0 15-6.729 15-15V73.407c0-8.271-6.729-15-15-15H15c-8.271 0-15 6.729-15 15v30.085c0 8.271 6.729 15 15 15zM387.686 58.407h-26.301c-8.271 0-15 6.729-15 15.001v30.084c0 8.271 6.729 15 15 15h26.301c8.271 0 15-6.729 15-15V73.408c0-8.272-6.729-15.001-15-15.001zM111.605 284.194H15c-8.271 0-15 6.729-15 15v30.085c0 8.271 6.729 15 15 15h96.605c8.271 0 15-6.729 15-15v-30.085c0-8.271-6.728-15-15-15zM249.287 284.194h-96.605c-8.271 0-15 6.729-15 15v30.085c0 8.271 6.729 15 15 15h96.605c8.271 0 15-6.729 15-15v-30.085c0-8.271-6.729-15-15-15zM386.968 284.194h-96.605c-8.271 0-15 6.729-15 15v30.085c0 8.271 6.729 15 15 15h96.605c8.271 0 15-6.729 15-15v-30.085c0-8.271-6.729-15-15-15zM82.976 208.932c-8.271 0-15 6.729-15 15v30.085c0 8.271 6.729 15 15 15h96.606c8.271 0 15-6.729 15-15v-30.085c0-8.271-6.729-15-15-15H82.976zM222.104 269.016h96.605c8.271 0 15-6.729 15-15v-30.085c0-8.271-6.729-15-15-15h-96.605c-8.271 0-15 6.729-15 15v30.085c0 8.271 6.729 15 15 15zM15 269.016h26.302c8.271 0 15-6.729 15-15v-30.085c0-8.271-6.729-15-15-15H15c-8.271 0-15 6.729-15 15v30.085c0 8.271 6.729 15 15 15zM387.686 208.932h-26.301c-8.271 0-15 6.729-15 15v30.085c0 8.271 6.729 15 15 15h26.301c8.271 0 15-6.729 15-15v-30.085c0-8.271-6.729-15-15-15z"/>
    </g>
</svg>
